<mxfile host="app.diagrams.net" modified="2023-06-06T12:46:24.143Z" agent="Mozilla/5.0 (Windows NT 10.0; Win64; x64) AppleWebKit/537.36 (KHTML, like Gecko) Chrome/112.0.0.0 Safari/537.36 OPR/98.0.0.0 (Edition Yx GX)" etag="D7vb-8FQmM7IwvYuKpU0" version="21.3.7" type="device">
  <diagram name="Страница 1" id="ykVWo6g1FOYKApAReNHz">
    <mxGraphModel dx="1009" dy="550" grid="1" gridSize="10" guides="1" tooltips="1" connect="1" arrows="1" fold="1" page="1" pageScale="1" pageWidth="827" pageHeight="1169" math="0" shadow="0">
      <root>
        <mxCell id="0" />
        <mxCell id="1" parent="0" />
        <mxCell id="n_TUo_b3KQMlVsK3H5bZ-5" style="edgeStyle=orthogonalEdgeStyle;rounded=0;orthogonalLoop=1;jettySize=auto;html=1;exitX=0.5;exitY=1;exitDx=0;exitDy=0;entryX=0.5;entryY=0;entryDx=0;entryDy=0;" edge="1" parent="1" source="n_TUo_b3KQMlVsK3H5bZ-3" target="n_TUo_b3KQMlVsK3H5bZ-4">
          <mxGeometry relative="1" as="geometry" />
        </mxCell>
        <mxCell id="n_TUo_b3KQMlVsK3H5bZ-3" value="Начало" style="ellipse;whiteSpace=wrap;html=1;" vertex="1" parent="1">
          <mxGeometry x="320" width="120" height="50" as="geometry" />
        </mxCell>
        <mxCell id="n_TUo_b3KQMlVsK3H5bZ-7" value="" style="edgeStyle=orthogonalEdgeStyle;rounded=0;orthogonalLoop=1;jettySize=auto;html=1;" edge="1" parent="1" source="n_TUo_b3KQMlVsK3H5bZ-4" target="n_TUo_b3KQMlVsK3H5bZ-6">
          <mxGeometry relative="1" as="geometry" />
        </mxCell>
        <mxCell id="n_TUo_b3KQMlVsK3H5bZ-4" value="size&lt;br&gt;array[size]" style="shape=parallelogram;perimeter=parallelogramPerimeter;whiteSpace=wrap;html=1;fixedSize=1;" vertex="1" parent="1">
          <mxGeometry x="320" y="80" width="120" height="60" as="geometry" />
        </mxCell>
        <mxCell id="n_TUo_b3KQMlVsK3H5bZ-9" style="edgeStyle=orthogonalEdgeStyle;rounded=0;orthogonalLoop=1;jettySize=auto;html=1;exitX=0.5;exitY=1;exitDx=0;exitDy=0;entryX=0.503;entryY=-0.075;entryDx=0;entryDy=0;entryPerimeter=0;" edge="1" parent="1" source="n_TUo_b3KQMlVsK3H5bZ-6" target="n_TUo_b3KQMlVsK3H5bZ-8">
          <mxGeometry relative="1" as="geometry" />
        </mxCell>
        <mxCell id="n_TUo_b3KQMlVsK3H5bZ-6" value="newArray[size]&lt;br&gt;newArray[0] =&amp;nbsp;В массиве нет строк, длина которых меньше, либо равна 3" style="whiteSpace=wrap;html=1;" vertex="1" parent="1">
          <mxGeometry x="260" y="160" width="240" height="60" as="geometry" />
        </mxCell>
        <mxCell id="n_TUo_b3KQMlVsK3H5bZ-11" value="" style="edgeStyle=orthogonalEdgeStyle;rounded=0;orthogonalLoop=1;jettySize=auto;html=1;" edge="1" parent="1" source="n_TUo_b3KQMlVsK3H5bZ-8" target="n_TUo_b3KQMlVsK3H5bZ-10">
          <mxGeometry relative="1" as="geometry" />
        </mxCell>
        <mxCell id="n_TUo_b3KQMlVsK3H5bZ-22" style="edgeStyle=orthogonalEdgeStyle;rounded=0;orthogonalLoop=1;jettySize=auto;html=1;exitX=1;exitY=0.5;exitDx=0;exitDy=0;entryX=0.5;entryY=0;entryDx=0;entryDy=0;" edge="1" parent="1" source="n_TUo_b3KQMlVsK3H5bZ-8" target="n_TUo_b3KQMlVsK3H5bZ-21">
          <mxGeometry relative="1" as="geometry" />
        </mxCell>
        <mxCell id="n_TUo_b3KQMlVsK3H5bZ-8" value="i = 0; i &amp;lt; size; i++" style="shape=hexagon;perimeter=hexagonPerimeter2;whiteSpace=wrap;html=1;fixedSize=1;" vertex="1" parent="1">
          <mxGeometry x="320" y="240" width="120" height="40" as="geometry" />
        </mxCell>
        <mxCell id="n_TUo_b3KQMlVsK3H5bZ-13" value="" style="edgeStyle=orthogonalEdgeStyle;rounded=0;orthogonalLoop=1;jettySize=auto;html=1;" edge="1" parent="1" source="n_TUo_b3KQMlVsK3H5bZ-10" target="n_TUo_b3KQMlVsK3H5bZ-12">
          <mxGeometry relative="1" as="geometry" />
        </mxCell>
        <mxCell id="n_TUo_b3KQMlVsK3H5bZ-10" value="&lt;div style=&quot;background-color: rgb(30, 30, 30); font-family: Consolas, &amp;quot;Courier New&amp;quot;, monospace; font-size: 14px; line-height: 19px;&quot;&gt;&lt;font color=&quot;#d4d4d4&quot;&gt;quantity = array[i].Length&lt;/font&gt;&lt;/div&gt;" style="whiteSpace=wrap;html=1;" vertex="1" parent="1">
          <mxGeometry x="270" y="320" width="220" height="40" as="geometry" />
        </mxCell>
        <mxCell id="n_TUo_b3KQMlVsK3H5bZ-15" value="" style="edgeStyle=orthogonalEdgeStyle;rounded=0;orthogonalLoop=1;jettySize=auto;html=1;" edge="1" parent="1" source="n_TUo_b3KQMlVsK3H5bZ-12" target="n_TUo_b3KQMlVsK3H5bZ-14">
          <mxGeometry relative="1" as="geometry" />
        </mxCell>
        <mxCell id="n_TUo_b3KQMlVsK3H5bZ-18" style="edgeStyle=orthogonalEdgeStyle;rounded=0;orthogonalLoop=1;jettySize=auto;html=1;exitX=0;exitY=0.5;exitDx=0;exitDy=0;entryX=0;entryY=0.5;entryDx=0;entryDy=0;" edge="1" parent="1" source="n_TUo_b3KQMlVsK3H5bZ-12" target="n_TUo_b3KQMlVsK3H5bZ-8">
          <mxGeometry relative="1" as="geometry">
            <Array as="points">
              <mxPoint x="210" y="410" />
              <mxPoint x="210" y="260" />
            </Array>
          </mxGeometry>
        </mxCell>
        <mxCell id="n_TUo_b3KQMlVsK3H5bZ-12" value="quantity &amp;lt;= 3" style="rhombus;whiteSpace=wrap;html=1;" vertex="1" parent="1">
          <mxGeometry x="320" y="380" width="120" height="60" as="geometry" />
        </mxCell>
        <mxCell id="n_TUo_b3KQMlVsK3H5bZ-20" style="edgeStyle=orthogonalEdgeStyle;rounded=0;orthogonalLoop=1;jettySize=auto;html=1;exitX=0;exitY=0.5;exitDx=0;exitDy=0;" edge="1" parent="1" source="n_TUo_b3KQMlVsK3H5bZ-14">
          <mxGeometry relative="1" as="geometry">
            <mxPoint x="210" y="410" as="targetPoint" />
          </mxGeometry>
        </mxCell>
        <mxCell id="n_TUo_b3KQMlVsK3H5bZ-14" value="&lt;div style=&quot;background-color: rgb(30, 30, 30); font-family: Consolas, &amp;quot;Courier New&amp;quot;, monospace; font-size: 14px; line-height: 19px;&quot;&gt;&lt;div style=&quot;&quot;&gt;count = 0&lt;/div&gt;&lt;div style=&quot;&quot;&gt;newArray[count] = array[i]&lt;/div&gt;&lt;div style=&quot;&quot;&gt;count++&lt;/div&gt;&lt;/div&gt;" style="whiteSpace=wrap;html=1;" vertex="1" parent="1">
          <mxGeometry x="275" y="470" width="210" height="60" as="geometry" />
        </mxCell>
        <mxCell id="n_TUo_b3KQMlVsK3H5bZ-16" value="&lt;font style=&quot;font-size: 17px;&quot;&gt;&lt;b&gt;ДА&lt;/b&gt;&lt;/font&gt;" style="text;html=1;align=center;verticalAlign=middle;resizable=0;points=[];autosize=1;strokeColor=none;fillColor=none;" vertex="1" parent="1">
          <mxGeometry x="380" y="280" width="50" height="30" as="geometry" />
        </mxCell>
        <mxCell id="n_TUo_b3KQMlVsK3H5bZ-17" value="&lt;font style=&quot;font-size: 17px;&quot;&gt;&lt;b&gt;ДА&lt;/b&gt;&lt;/font&gt;" style="text;html=1;align=center;verticalAlign=middle;resizable=0;points=[];autosize=1;strokeColor=none;fillColor=none;" vertex="1" parent="1">
          <mxGeometry x="380" y="440" width="50" height="30" as="geometry" />
        </mxCell>
        <mxCell id="n_TUo_b3KQMlVsK3H5bZ-19" value="&lt;span style=&quot;font-size: 17px;&quot;&gt;&lt;b&gt;НЕТ&lt;/b&gt;&lt;/span&gt;" style="text;html=1;align=center;verticalAlign=middle;resizable=0;points=[];autosize=1;strokeColor=none;fillColor=none;" vertex="1" parent="1">
          <mxGeometry x="275" y="380" width="60" height="30" as="geometry" />
        </mxCell>
        <mxCell id="n_TUo_b3KQMlVsK3H5bZ-25" value="" style="edgeStyle=orthogonalEdgeStyle;rounded=0;orthogonalLoop=1;jettySize=auto;html=1;entryX=0.5;entryY=0;entryDx=0;entryDy=0;" edge="1" parent="1" source="n_TUo_b3KQMlVsK3H5bZ-21" target="n_TUo_b3KQMlVsK3H5bZ-23">
          <mxGeometry relative="1" as="geometry">
            <Array as="points">
              <mxPoint x="610" y="560" />
              <mxPoint x="380" y="560" />
            </Array>
          </mxGeometry>
        </mxCell>
        <mxCell id="n_TUo_b3KQMlVsK3H5bZ-21" value="array[ ]&lt;br&gt;newArray[ ]" style="shape=document;whiteSpace=wrap;html=1;boundedLbl=1;" vertex="1" parent="1">
          <mxGeometry x="550" y="450" width="120" height="80" as="geometry" />
        </mxCell>
        <mxCell id="n_TUo_b3KQMlVsK3H5bZ-23" value="Конец" style="ellipse;whiteSpace=wrap;html=1;" vertex="1" parent="1">
          <mxGeometry x="320" y="590" width="120" height="40" as="geometry" />
        </mxCell>
      </root>
    </mxGraphModel>
  </diagram>
</mxfile>
